<svg xmlns="http://www.w3.org/2000/svg"
 xmlns:xlink="http://www.w3.org/1999/xlink"
 width="10px" height="14px"  viewBox="0 0 10 14">
<path fill-rule="evenodd"  fill="#fafafa"
 d="M7.7146606,2.2803497 C8.09021,2.6497498 8.09021,3.2485657 7.7146606,3.6179657 C7.7146606,3.6179657 4.27124,7.004776 4.27124,7.004776 C4.27124,7.004776 7.7146606,10.391693 7.7146606,10.391693 C8.09021,10.760971 8.09021,11.359802 7.7146606,11.729202 C7.3391724,12.098602 6.7303467,12.098602 6.3547363,11.729202 C6.3547363,11.729202 2.2750244,7.716461 2.2750244,7.716461 C2.0761108,7.520859 1.9857178,7.260956 1.9974976,7.004776 C1.9857178,6.748581 2.0761108,6.488678 2.2750244,6.293091 C2.2750244,6.293091 6.3547363,2.2803497 6.3547363,2.2803497 C6.7303467,1.9110565 7.3391724,1.9110565 7.7146606,2.2803497 Z"/>
</svg>