<svg xmlns="http://www.w3.org/2000/svg"
 xmlns:xlink="http://www.w3.org/1999/xlink"
 width="10px" height="14px"  viewBox="0 0 10 14">
<path fill-rule="evenodd"  fill="#fafafa"
 d="M2.2850342,11.719345 C1.9095459,11.349945 1.9095459,10.751129 2.2850342,10.381851 C2.2850342,10.381851 5.7283936,6.994919 5.7283936,6.994919 C5.7283936,6.994919 2.2850342,3.6081238 2.2850342,3.6081238 C1.9095459,3.2387238 1.9095459,2.6398926 2.2850342,2.2704926 C2.6605835,1.9012146 3.2694092,1.9012146 3.6448975,2.2704926 C3.6448975,2.2704926 7.7247314,6.2832336 7.7247314,6.2832336 C7.923645,6.478943 8.013916,6.7387238 8.002136,6.994919 C8.013916,7.251114 7.923645,7.511017 7.7247314,7.706604 C7.7247314,7.706604 3.6448975,11.719345 3.6448975,11.719345 C3.2694092,12.088745 2.6605835,12.088745 2.2850342,11.719345 Z"/>
</svg>